<mxfile host="app.diagrams.net" modified="2022-04-20T19:57:09.930Z" agent="5.0 (Windows NT 10.0; Win64; x64) AppleWebKit/537.36 (KHTML, like Gecko) Chrome/100.0.4896.88 Safari/537.36" etag="afgNko5y-HmmalLm7Ht2" version="17.1.0" type="github">
  <diagram id="kgpKYQtTHZ0yAKxKKP6v" name="Page-1">
    <mxGraphModel dx="1309" dy="786" grid="1" gridSize="10" guides="1" tooltips="1" connect="1" arrows="1" fold="1" page="1" pageScale="1" pageWidth="850" pageHeight="1100" math="0" shadow="0">
      <root>
        <mxCell id="0" />
        <mxCell id="1" parent="0" />
        <mxCell id="xJ0WfwZCPexziDGsL2xi-18" style="edgeStyle=orthogonalEdgeStyle;rounded=0;orthogonalLoop=1;jettySize=auto;html=1;entryX=0;entryY=0.5;entryDx=0;entryDy=0;" edge="1" parent="1" source="xJ0WfwZCPexziDGsL2xi-1" target="xJ0WfwZCPexziDGsL2xi-3">
          <mxGeometry relative="1" as="geometry" />
        </mxCell>
        <mxCell id="xJ0WfwZCPexziDGsL2xi-1" value="Production Order List&amp;nbsp;&lt;br&gt;From ERP" style="rounded=0;whiteSpace=wrap;html=1;" vertex="1" parent="1">
          <mxGeometry x="100" y="370" width="140" height="30" as="geometry" />
        </mxCell>
        <mxCell id="xJ0WfwZCPexziDGsL2xi-19" style="edgeStyle=orthogonalEdgeStyle;rounded=0;orthogonalLoop=1;jettySize=auto;html=1;entryX=0;entryY=0.75;entryDx=0;entryDy=0;" edge="1" parent="1" source="xJ0WfwZCPexziDGsL2xi-2" target="xJ0WfwZCPexziDGsL2xi-3">
          <mxGeometry relative="1" as="geometry" />
        </mxCell>
        <mxCell id="xJ0WfwZCPexziDGsL2xi-2" value="Workstation sequence list&lt;br&gt;From MES" style="rounded=0;whiteSpace=wrap;html=1;" vertex="1" parent="1">
          <mxGeometry x="95" y="420" width="145" height="30" as="geometry" />
        </mxCell>
        <mxCell id="xJ0WfwZCPexziDGsL2xi-13" style="edgeStyle=orthogonalEdgeStyle;rounded=0;orthogonalLoop=1;jettySize=auto;html=1;entryX=0.5;entryY=0;entryDx=0;entryDy=0;" edge="1" parent="1" source="xJ0WfwZCPexziDGsL2xi-3" target="xJ0WfwZCPexziDGsL2xi-4">
          <mxGeometry relative="1" as="geometry" />
        </mxCell>
        <mxCell id="xJ0WfwZCPexziDGsL2xi-3" value="Compounded Batch Order" style="rounded=0;whiteSpace=wrap;html=1;" vertex="1" parent="1">
          <mxGeometry x="330" y="370" width="130" height="30" as="geometry" />
        </mxCell>
        <mxCell id="xJ0WfwZCPexziDGsL2xi-14" style="edgeStyle=orthogonalEdgeStyle;rounded=0;orthogonalLoop=1;jettySize=auto;html=1;entryX=0.5;entryY=0;entryDx=0;entryDy=0;" edge="1" parent="1" source="xJ0WfwZCPexziDGsL2xi-4" target="xJ0WfwZCPexziDGsL2xi-5">
          <mxGeometry relative="1" as="geometry" />
        </mxCell>
        <mxCell id="xJ0WfwZCPexziDGsL2xi-4" value="Topology Estimation and Optimization" style="rounded=0;whiteSpace=wrap;html=1;" vertex="1" parent="1">
          <mxGeometry x="330" y="430" width="130" height="30" as="geometry" />
        </mxCell>
        <mxCell id="xJ0WfwZCPexziDGsL2xi-15" style="edgeStyle=orthogonalEdgeStyle;rounded=0;orthogonalLoop=1;jettySize=auto;html=1;" edge="1" parent="1" source="xJ0WfwZCPexziDGsL2xi-5" target="xJ0WfwZCPexziDGsL2xi-6">
          <mxGeometry relative="1" as="geometry" />
        </mxCell>
        <mxCell id="xJ0WfwZCPexziDGsL2xi-5" value="New Topology" style="rounded=0;whiteSpace=wrap;html=1;" vertex="1" parent="1">
          <mxGeometry x="330" y="490" width="130" height="30" as="geometry" />
        </mxCell>
        <mxCell id="xJ0WfwZCPexziDGsL2xi-16" style="edgeStyle=orthogonalEdgeStyle;rounded=0;orthogonalLoop=1;jettySize=auto;html=1;exitX=0.5;exitY=1;exitDx=0;exitDy=0;entryX=0.5;entryY=0;entryDx=0;entryDy=0;" edge="1" parent="1" source="xJ0WfwZCPexziDGsL2xi-6" target="xJ0WfwZCPexziDGsL2xi-9">
          <mxGeometry relative="1" as="geometry" />
        </mxCell>
        <mxCell id="xJ0WfwZCPexziDGsL2xi-6" value="More Optimal?" style="rhombus;whiteSpace=wrap;html=1;" vertex="1" parent="1">
          <mxGeometry x="355" y="550" width="80" height="80" as="geometry" />
        </mxCell>
        <mxCell id="xJ0WfwZCPexziDGsL2xi-12" style="edgeStyle=orthogonalEdgeStyle;rounded=0;orthogonalLoop=1;jettySize=auto;html=1;" edge="1" parent="1" source="xJ0WfwZCPexziDGsL2xi-7">
          <mxGeometry relative="1" as="geometry">
            <mxPoint x="440" y="590" as="targetPoint" />
          </mxGeometry>
        </mxCell>
        <mxCell id="xJ0WfwZCPexziDGsL2xi-7" value="Current&amp;nbsp; Topology" style="rounded=0;whiteSpace=wrap;html=1;" vertex="1" parent="1">
          <mxGeometry x="520" y="575" width="140" height="30" as="geometry" />
        </mxCell>
        <mxCell id="xJ0WfwZCPexziDGsL2xi-17" style="edgeStyle=orthogonalEdgeStyle;rounded=0;orthogonalLoop=1;jettySize=auto;html=1;entryX=0;entryY=0.5;entryDx=0;entryDy=0;" edge="1" parent="1" source="xJ0WfwZCPexziDGsL2xi-9" target="xJ0WfwZCPexziDGsL2xi-10">
          <mxGeometry relative="1" as="geometry" />
        </mxCell>
        <mxCell id="xJ0WfwZCPexziDGsL2xi-9" value="Changeover" style="rounded=0;whiteSpace=wrap;html=1;" vertex="1" parent="1">
          <mxGeometry x="330" y="650" width="130" height="30" as="geometry" />
        </mxCell>
        <mxCell id="xJ0WfwZCPexziDGsL2xi-10" value="Production" style="rounded=0;whiteSpace=wrap;html=1;" vertex="1" parent="1">
          <mxGeometry x="530" y="650" width="130" height="30" as="geometry" />
        </mxCell>
      </root>
    </mxGraphModel>
  </diagram>
</mxfile>
